<?xml version="1.0" encoding="UTF-8" standalone="no"?>
<svg xmlns="http://www.w3.org/2000/svg"
     xmlns:xlink="http://www.w3.org/1999/xlink"
     viewBox="0 0 300 45.5">
    <style type="text/css">
        .st0 {
        clip-path: url(#SVGID_2_);
        }

        .st1 {
        clip-path: url(#SVGID_4_);
        fill: #FFFFFF;
        }
    </style>
    <defs>
        <rect width="300" height="45.5"/>
    </defs>
    <clipPath>
        <use xlink:href="#SVGID_1_"/>
    </clipPath>
    <g class="st0">
        <defs>
            <rect width="300" height="45.5"/>
        </defs>
        <clipPath>
            <use xlink:href="#SVGID_3_"/>
        </clipPath>
        <path class="st1"
              d="M39.4 29.6c-0.4 5-2.3 9-5.7 11.8 -3.4 2.8-8 4.2-13.6 4.2 -6.5 0-11.5-2-15-5.9C1.7 35.8 0 30.3 0 22.9c0-7.5 1.8-13.2 5.3-17C8.9 2 14.1 0 20.9 0c5.5 0 9.9 1.4 13.2 4.2 3.1 2.7 4.9 6.5 5.3 11.3H34c-2 0-3.4-0.9-4.3-2.6 -0.6-1.1-1.3-2.1-2.1-2.9 -1.7-1.3-3.9-1.9-6.7-1.9C17 8.1 14 9.3 12 11.8c-2 2.5-3 6.2-3 11.1 0 4.7 1 8.3 3 10.8 1.9 2.6 4.8 3.9 8.7 3.9 2.7 0 4.9-0.7 6.7-2 1.6-1.3 2.7-3.3 3.4-6H39.4z"/>
        <path class="st1"
              d="M70.8 11.1v19.6c0 6-1.6 9.9-4.7 11.7 -3.1 1.8-6.5 2.8-10.2 2.8 -3.6-0.2-6.9-1.2-9.9-3 -3-1.8-4.5-5.7-4.5-11.4V11.1h8.8v21.4c0 2 0.6 3.5 1.8 4.4 1.2 0.9 2.5 1.4 4 1.4 1.5 0 2.9-0.5 4.1-1.4 1.2-0.9 1.8-2.4 1.8-4.4V15.3c0-1.2 0.4-2.2 1.2-3 0.8-0.8 1.8-1.3 3.1-1.3H70.8z"/>
        <path class="st1"
              d="M72.9 33.5h8.6c0.1 1.7 0.7 2.9 1.9 3.8 1.3 0.8 2.9 1.3 5 1.3 1.5 0 2.8-0.3 3.9-0.9 1-0.6 1.5-1.4 1.5-2.4 0-1.5-1.8-2.6-5.3-3.4 -1.5-0.2-2.6-0.5-3.4-0.8 -4.4-1.1-7.4-2.4-8.9-3.9 -1.7-1.5-2.5-3.5-2.5-6 0-3.2 1.2-5.8 3.6-7.9 2.5-1.9 5.8-2.9 9.8-2.9 4.4 0 7.8 1 10.4 2.9 2.4 2.1 3.7 4.8 3.9 8.2H96c-1.6 0-2.8-0.7-3.6-2.1 -0.3-0.3-0.7-0.7-1-1 -1-0.8-2.4-1.1-4.2-1.1 -1.7 0-2.9 0.3-3.8 0.8 -0.8 0.5-1.1 1.3-1.1 2.3 0 1.3 2.2 2.5 6.5 3.4 0.5 0.2 0.9 0.3 1.3 0.4 0.4 0.1 0.7 0.1 1.1 0.1 4.3 1.1 7.3 2.3 8.9 3.8 1.6 1.5 2.4 3.5 2.4 6 0 3.7-1.3 6.5-4 8.6 -2.5 1.8-6.3 2.8-11.3 2.8 -4.8 0-8.3-1-10.7-2.9 -2.4-1.9-3.6-4.7-3.6-8.4V33.5z"/>
        <path class="st1"
              d="M118.1 44.5c-2.8 0.2-5.8 0.1-9-0.1 -3.2-0.3-4.8-2.3-4.8-6.2v-37h4.5c1.1 0 2.1 0.4 2.9 1.3 0.8 0.8 1.3 1.8 1.3 3v5.7h5.2V13c0 1.3-0.4 2.3-1.3 3.1 -0.8 0.8-1.8 1.2-3 1.2H113v18.6c0 1.4 0.8 2.1 2.5 2.1h2.6V44.5z"/>
        <path class="st1"
              d="M141.8 34.2h6.3c-0.9 3.5-2.7 6.2-5.3 8.1 -2.6 1.9-5.9 2.9-9.8 2.9 -4.8 0-8.5-1.5-11.2-4.7 -2.7-3-4-7.3-4-13 0-5.4 1.3-9.6 3.9-12.6 2.7-3.1 6.4-4.7 11.2-4.7 5 0 8.9 1.5 11.7 4.5 2.7 3.1 4 7.4 4 13v0.9 0.5c0 0.4 0 0.7-0.1 0.9h-21.8c0.1 2.6 0.7 4.5 1.9 5.8 1.1 1.3 2.7 2 4.9 2 1.4 0 2.6-0.3 3.6-0.9 0.3-0.1 0.5-0.2 0.7-0.4 0.2-0.2 0.4-0.4 0.7-0.7 0.1-0.3 0.4-0.6 0.9-1C140 34.4 140.8 34.2 141.8 34.2M126.7 24.4h12.8c-0.2-2.3-0.8-3.9-1.8-5 -1.1-1.2-2.6-1.8-4.6-1.8 -1.8 0-3.4 0.6-4.5 1.8C127.4 20.5 126.8 22.2 126.7 24.4"/>
        <path class="st1"
              d="M151.1 1.3h4.5c1.2 0 2.2 0.4 3 1.2 0.8 0.8 1.3 1.8 1.3 3v39.1h-8.8V1.3z"/>
        <path class="st1"
              d="M162.8 1.3h4.5c1.2 0 2.2 0.4 3 1.2 0.8 0.8 1.3 1.8 1.3 3v39.1h-8.8V1.3z"/>
        <path class="st1"
              d="M198.1 34.2h6.3c-0.9 3.5-2.7 6.2-5.3 8.1 -2.6 1.9-5.9 2.9-9.8 2.9 -4.8 0-8.5-1.5-11.2-4.7 -2.7-3-4-7.3-4-13 0-5.4 1.3-9.6 3.9-12.6 2.7-3.1 6.4-4.7 11.2-4.7 5 0 8.9 1.5 11.7 4.5 2.7 3.1 4 7.4 4 13v0.9 0.5c0 0.4 0 0.7-0.1 0.9H183c0.1 2.6 0.7 4.5 1.9 5.8 1.1 1.3 2.7 2 4.9 2 1.4 0 2.6-0.3 3.6-0.9 0.2-0.1 0.5-0.2 0.7-0.4 0.2-0.2 0.4-0.4 0.7-0.7 0.1-0.3 0.4-0.6 0.9-1C196.4 34.4 197.1 34.2 198.1 34.2M183 24.4h12.8c-0.2-2.3-0.8-3.9-1.8-5 -1.1-1.2-2.6-1.8-4.7-1.8 -1.8 0-3.4 0.6-4.5 1.8C183.8 20.5 183.1 22.2 183 24.4"/>
        <path class="st1"
              d="M236.2 44.5h-4.4c-1.3 0-2.3-0.4-3.1-1.2 -0.8-0.8-1.2-1.8-1.2-3.1V23.1c0-2-0.6-3.5-1.8-4.4 -1.2-0.9-2.6-1.4-4.1-1.4 -1.5 0-2.9 0.5-4 1.4 -1.2 0.9-1.8 2.4-1.8 4.4v21.4H207V24.9c0-5.7 1.5-9.5 4.5-11.4 3-1.9 6.3-3 9.9-3.1 3.7 0 7.1 1 10.2 2.9 3.1 1.9 4.7 5.8 4.7 11.7V44.5z"/>
        <path class="st1"
              d="M262.3 34.2h6.3c-0.9 3.5-2.7 6.2-5.3 8.1 -2.6 1.9-5.9 2.9-9.8 2.9 -4.8 0-8.5-1.5-11.2-4.7 -2.7-3-4-7.3-4-13 0-5.4 1.3-9.6 3.9-12.6 2.7-3.1 6.4-4.7 11.2-4.7 5 0 8.9 1.5 11.7 4.5 1.5 1.8 2.6 4 3.3 6.4h-8.8c-0.4-0.8-0.8-1.5-1.3-1.9 -1.1-1.2-2.6-1.8-4.7-1.8 -1.8 0-3.4 0.6-4.5 1.8 -1.5 1.7-2.3 4.4-2.3 8.3 0 3.9 0.8 6.6 2.3 8.2 1.1 1.3 2.7 2 4.9 2 1.4 0 2.6-0.3 3.6-0.9 0.3-0.1 0.5-0.2 0.7-0.4 0.2-0.2 0.4-0.4 0.7-0.7 0.2-0.3 0.5-0.6 1-1C260.5 34.4 261.3 34.2 262.3 34.2"/>
        <path class="st1"
              d="M293.2 34.2h6.3c-0.9 3.5-2.7 6.2-5.3 8.1 -2.6 1.9-5.9 2.9-9.8 2.9 -4.8 0-8.5-1.5-11.2-4.7 -2.7-3-4-7.3-4-13 0-5.4 1.3-9.6 3.9-12.6 2.7-3.1 6.4-4.7 11.2-4.7 5 0 8.9 1.5 11.7 4.5 2.7 3.1 4 7.4 4 13v0.9 0.5c0 0.4 0 0.7-0.1 0.9h-21.8c0.1 2.6 0.7 4.5 1.9 5.8 1.1 1.3 2.7 2 4.9 2 1.4 0 2.6-0.3 3.6-0.9 0.2-0.1 0.5-0.2 0.7-0.4 0.2-0.2 0.4-0.4 0.7-0.7 0.1-0.3 0.4-0.6 0.9-1C291.4 34.4 292.2 34.2 293.2 34.2M278.1 24.4h12.8c-0.2-2.3-0.8-3.9-1.8-5 -1.1-1.2-2.6-1.8-4.7-1.8 -1.8 0-3.4 0.6-4.5 1.8C278.8 20.5 278.2 22.2 278.1 24.4"/>
    </g>
</svg>
