<svg height="512" viewBox="0 0 512 512" width="512" xmlns="http://www.w3.org/2000/svg"><rect fill="#448ac8" height="512" rx="64" width="512"/><path d="m112.2576 395.069c-29.697797-32.3111-53.204497-74.2445-56.257797-130.4712 0-5.4622 0-10.9378 0-16.4 1.2-23.7467 7.2578-45.2667 14.8444-64.849 9.8356-25.3822 25.026695-49.6489 42.977897-64.8401 0 12.1423.3022 23.7423 1.5555 31.249 3.8 22.7911 16.5023 47.7511 32.0401 63.28 12.5866 12.5867 29.4622 21.2312 46.8756 30.4623 34.7467 18.44 67.7956 34.7245 102.3423 53.12 22.2222 11.8489 45.0934 26.4845 51.5556 50.0045 9.1422 33.2623-10.2533 64.1112-25.7822 80.4668-14.3156 15.08-33.089 25.4178-55.4668 28.9067-8.8533 0-17.7067 0-26.5644 0-54.8623-6.1333-98.3024-28.4889-128.1202-60.929zm132.0224-200.778c32.0311 16.7867 65.1023 33.8179 97.6668 50.7779 16.7778 8.7467 32.04 17.7867 43.7422 30.4667 21.3112 23.0889 34.609 53.2089 32.0312 96.8756 5.2711-5.1066 10.0622-12.2133 14.0533-19.5333 11.6134-21.2534 21.0178-48.3334 23.4534-79.689-.1289-.9155.1555-1.3911.7733-1.5644 0-10.4178 0-20.8356 0-31.249-13.76-109.9068-88.5423-175.902402-193.7513-184.373502-3.3867 0-6.7689 0-10.1556 0-20.5555 3.44-40.5822 9.3111-52.3378 22.6667-8.2622 9.3644-14.7645 26.000002-15.6356 36.715602-3.6933 45.9556 29.2489 62.6934 60.1601 78.9067z" fill="#fff"/></svg>