<svg height="43" viewBox="0 0 110 43" width="110" xmlns="http://www.w3.org/2000/svg" xmlns:xlink="http://www.w3.org/1999/xlink"><mask id="a" fill="#fff"><path d="m18.825443.13445638h-18.825443v32.65319592h18.825443z" fill="none"/></mask><mask id="b" fill="#fff"><path d="m19.4718483 32.6979866h-19.41217447v-32.56347385h19.41217447z" fill="none"/></mask><mask id="c" fill="#fff"><path d="m0 41.8655436h109.129812v-41.5836644h-109.129812z" fill="none"/></mask><g fill="#3c7cb5" fill-rule="evenodd"><path d="m1.30918792 27.3758537s3.20524832 3.5175705 8.442 3.5175705c3.92770468 0 7.04275168-2.4351544 7.04275168-6.2238927 0-8.9750335-16.16182551-6.4947785-16.16182551-16.37182546 0-4.1946443 3.74702014-8.16350336 9.48016111-8.16350336 5.1465503 0 8.035812 2.93154363 8.035812 2.93154363l-1.0832617 1.66900671s-2.7088591-2.70632215-6.9071678-2.70632215c-4.69526173 0-7.49404025 3.15704698-7.49404025 6.2241745 0 8.34362413 16.16182555 5.77316783 16.16182555 16.32672483 0 4.5554497-3.5215168 8.2083221-9.16445642 8.2083221-6.23009396 0-9.66112752-3.9237583-9.66112752-3.9237583z" mask="url(#a)" transform="translate(0 .147423)"/><path d="m21.9397852 9.84322148h1.8962014v3.96914092c0 1.0373155-.1806846 1.8488457-.1806846 1.8488457h.0902014c.767557-2.1194497 3.9277047-6.35919468 9.5706443-6.35919468 5.8690067 0 7.4489395 3.47275168 7.4489395 8.79491278v14.2969127h-1.8959194v-13.6204027c0-3.9237583-.4966712-7.6222953-5.5530201-7.6222953-4.2434094 0-7.9904296 2.9769262-9.1190739 7.1712886-.2708859.9471141-.3610872 1.9844296-.3610872 3.0665638v11.0048456h-1.8962014z"/><path d="m50.8772779 31.176149c4.9207651 0 7.7198255-5.0963758 7.7198255-9.5613423v-1.2177181h-1.4446309c-3.8375034 0-12.0537181 0-12.0537181 5.8633691 0 2.3903356 1.941302 4.9156913 5.7785235 4.9156913m6.2300939-12.5379866h1.4897316v-.7667114c0-5.0064564-2.5732752-6.7202819-6.1849933-6.7202819-3.9274229 0-6.4555973 2.1648322-6.4555973 2.1648322l-1.0835437-1.5334228s2.7088591-2.48053689 7.6296242-2.48053689c5.191651 0 7.9904295 2.88644299 7.9904295 8.52430869v14.5675168h-1.8959194v-2.9763624c0-1.218.1804026-2.0295302.1804026-2.0295302h-.0902013c.0451007 0-2.0315034 5.5471007-7.9002282 5.5471007-3.6568188 0-7.6747248-2.0292484-7.6747248-6.5393155 0-7.6673959 9.9771141-7.7575973 13.9950201-7.7575973"/><path d="m17.6210295 11.5903651c0-7.26148993-3.4310335-9.60672483-7.85512749-9.60672483-4.83056375 0-7.7198255 3.51785235-7.7198255 9.60672483 0 6.0888725 3.34083221 9.7871275 8.17111409 9.7871275 3.9728054 0 7.4038389-2.4805369 7.4038389-9.7871275m-8.62268453 19.2582685c4.83056373 0 8.57758393-2.3001343 8.57758393-7.7573155v-2.6158389c0-1.0373154.1804026-1.8494094.1804026-1.8494094h-.0902013c-1.3544295 2.7514228-3.8372215 4.6002685-7.5842416 4.6002685-5.86872484 0-10.02221477-4.6002685-10.02221477-11.6359732 0-7.03598658 3.83722147-11.45585235 9.70622818-11.45585235 6.41049669 0 7.85512749 4.41986577 7.85512749 4.41986577h.0902014s-.135302-.31570469-.135302-.85691275v-3.02174496h1.8959194v22.41559729c0 6.9004027-4.9658657 9.6067249-10.33791944 9.6067249-2.48307383 0-4.87566443-.6314094-7.08785235-1.7589262l.90285906-1.6687249s2.7990604 1.5782417 6.0494094 1.5782417" mask="url(#b)" transform="translate(63.14094 9.167557)"/><path d="m87.1271678 32.3938389h1.8962013v-22.55061742h-1.8962013zm-.1806846-28.27868454h2.2572886v-3.29234899h-2.2572886z" mask="url(#c)"/><path d="m94.2591342 11.692349h-2.9794631v-1.71382551h2.9794631v-6.4042953h1.8962014v6.4042953h5.9138254v1.71382551h-5.9138254v12.4029664c0 5.9532886 3.5663355 6.7202819 5.3720534 6.7202819.631973 0 1.038443-.0904832 1.038443-.0904832v1.759208s-.45157.0902014-1.128644.0902014c-2.34749 0-7.1780538-.8569128-7.1780538-8.3439061z" mask="url(#c)"/><path d="m106.561357 4.37493423c.310913 0 .510765-.19957047.510765-.5324698 0-.32500671-.199852-.50991946-.510765-.50991946h-.540362v1.04238926zm-.955007-1.38994631h1.029141c.510483 0 .865933.33994631.865933.85747651 0 .42902013-.273986.69511409-.540362.76163758v.0149396s.029315.03692618.096121.1626443l.555302 1.08664429h-.4589l-.57757-1.16810738h-.55502v1.16810738h-.414645zm.873544 3.73377181c1.258309 0 2.220644-.99813423 2.220644-2.29195973 0-1.27916779-.962335-2.28463087-2.220644-2.28463087-1.228711 0-2.176389 1.00546308-2.176389 2.28463087 0 1.2938255.947678 2.29195973 2.176389 2.29195973zm0-4.97601342c1.473101 0 2.649946 1.19037584 2.649946 2.68405369 0 1.50833557-1.176845 2.69110067-2.649946 2.69110067-1.443503 0-2.613302-1.1827651-2.613302-2.69110067 0-1.49367785 1.169799-2.68405369 2.613302-2.68405369z" mask="url(#c)"/></g></svg>