<svg xmlns="http://www.w3.org/2000/svg" width="203" height="49" viewBox="0 0 203 49">
    <g fill="none" fill-rule="evenodd">
        <path fill="#3BC7D6" d="M136.896 9.246v5.629c-1.17.017-3.396-.164-5.287 1.178-1.512 1.072-1.766 3.972-1.766 6.83v8.795h-8.318V9.246h7.267l.672 4.201c.59-2 1.901-3.006 3.121-3.523.905-.385 2.44-.678 4.311-.678z"/>
        <path fill="#999" d="M55.956 39.586c.75 0 1.17-.302 1.17-1.06 0-.685-.393-.978-1.27-.978h-.649v2.038h.75zm-.749.868v2.532H54V36.67h1.883c1.654 0 2.505.602 2.505 1.855 0 .859-.42 1.372-1.28 1.709l1.654 2.75h-1.389l-1.398-2.531h-.768zM62.321 37.566v1.764h2.028v.895h-2.028v1.856h2.495v.905h-3.702V36.67h3.665l-.128.896zM72.294 42.986l-.164-2.642c-.055-.932-.101-1.91-.083-2.577L70.896 42.3h-1.143l-1.225-4.543a25.19 25.19 0 0 1-.036 2.625l-.155 2.604h-1.17l.502-6.315h1.554l1.125 4.423 1.059-4.423h1.573l.494 6.315h-1.18zM77.105 39.833c0 1.7.575 2.367 1.498 2.367.942 0 1.49-.667 1.49-2.376 0-1.691-.538-2.367-1.49-2.367-.94 0-1.498.676-1.498 2.376m4.26-.009c0 2.084-1.07 3.299-2.761 3.299-1.69 0-2.77-1.179-2.77-3.29 0-2.075 1.08-3.3 2.77-3.3s2.76 1.18 2.76 3.291M86.129 37.63v5.356h-1.216V37.63h-1.7v-.96h4.689l-.127.96zM91.424 37.566v1.764h2.028v.895h-2.028v1.856h2.495v.905h-3.702V36.67h3.665l-.128.896zM105.009 40.92c0 1.272-.813 2.203-2.357 2.203-1.555 0-2.34-.904-2.34-2.202v-4.25h1.206v4.186c0 .886.356 1.325 1.134 1.325.785 0 1.14-.44 1.14-1.325V36.67h1.217v4.25zM111.831 37.31l-.613.694c-.439-.383-.877-.547-1.399-.547-.566 0-.977.255-.977.75 0 .456.247.657 1.298.986 1.106.348 1.874.805 1.874 1.992 0 1.134-.887 1.938-2.395 1.938-1.006 0-1.755-.356-2.276-.868l.64-.714c.44.413.951.65 1.61.65.675 0 1.16-.329 1.16-.942 0-.53-.266-.767-1.253-1.069-1.325-.41-1.9-.94-1.9-1.9 0-1.052.904-1.747 2.147-1.747.923 0 1.535.274 2.084.777M116.294 37.594l-.805 3.017h1.609l-.804-3.017zm-1.042 3.93l-.394 1.463h-1.252l1.965-6.316h1.49l1.957 6.316h-1.28l-.393-1.463h-2.093zM123.16 42.081c.795 0 1.371-.164 1.371-.959 0-.759-.539-1.015-1.243-1.015h-.83v1.974h.702zm-.703-2.814h.74c.658 0 1.087-.293 1.087-.887 0-.64-.438-.822-1.26-.822h-.567v1.709zm3.336 1.9c0 1.39-1.107 1.819-2.642 1.819h-1.9v-6.315h1.653c1.627 0 2.614.457 2.614 1.608 0 .786-.566 1.234-1.17 1.362.722.137 1.445.475 1.445 1.526zM128.382 42.986h1.216v-6.315h-1.216zM136.344 41.999l-.137.987h-3.601v-6.315h1.207v5.328zM138.76 42.986h1.216v-6.315h-1.216zM145.27 37.63v5.356h-1.216V37.63h-1.7v-.96h4.688l-.126.96zM151.852 42.986h-1.225V40.6l-2.03-3.929h1.336l1.334 2.933 1.335-2.933h1.279l-2.03 3.92zM162.23 37.63v5.356h-1.216V37.63h-1.7v-.96h4.689l-.127.96zM167.524 37.566v1.764h2.028v.895h-2.028v1.856h2.495v.905h-3.702V36.67h3.665l-.128.896zM176.594 37.31l-.613.694c-.44-.383-.877-.547-1.398-.547-.567 0-.978.255-.978.75 0 .456.247.657 1.298.986 1.106.348 1.874.805 1.874 1.992 0 1.134-.887 1.938-2.395 1.938-1.006 0-1.755-.356-2.276-.868l.639-.714c.44.413.952.65 1.61.65.676 0 1.16-.329 1.16-.942 0-.53-.265-.767-1.252-1.069-1.325-.41-1.901-.94-1.901-1.9 0-1.052.905-1.747 2.148-1.747.923 0 1.535.274 2.084.777M181.531 37.63v5.356h-1.216V37.63h-1.7v-.96h4.69l-.128.96zM185.619 42.986h1.216v-6.315h-1.216zM192.942 42.986l-2.166-5.109c.063.557.164 1.362.164 2.532v2.577h-1.097v-6.315h1.527l2.203 5.118a15.606 15.606 0 0 1-.165-2.157v-2.96h1.096v6.314h-1.562zM202.075 37.273l-.657.686c-.42-.347-.778-.512-1.317-.512-.895 0-1.664.677-1.664 2.377 0 1.727.513 2.376 1.5 2.376.356 0 .703-.073 1.005-.247v-1.645h-.95l-.129-.896h2.268v3.09a4.152 4.152 0 0 1-2.222.621c-1.755 0-2.742-1.133-2.742-3.299 0-2.139 1.326-3.29 2.88-3.29.895 0 1.5.282 2.028.74"/>
        <path fill="#3BC7D6" d="M67.385 31.783l-.297-2.667c-1.609 2.33-3.852 3.431-6.732 3.431-4.318 0-6.309-2.795-6.309-7.114V9.217h7.537V24.46c0 2.033.678 2.583 1.78 2.583 1.057 0 2.158-.762 3.046-2.245V9.217h7.537v22.566h-6.562zM95.085 11.389l-2.753 4.15c-1.65-1.058-3.557-1.694-5.164-1.694-1.863 0-2.584.552-2.584 1.356 0 .973.424 1.397 4.573 2.667 4.361 1.27 6.774 3.134 6.774 7.198 0 4.657-4.403 7.579-10.33 7.579-3.938 0-7.41-1.356-9.654-3.43l3.642-4.064c1.607 1.312 3.683 2.244 5.758 2.244 1.821 0 2.88-.636 2.88-1.736 0-1.356-.594-1.653-4.575-2.838-4.317-1.27-6.562-3.641-6.562-7.198 0-3.937 3.473-7.07 9.526-7.07 3.303 0 6.394 1.102 8.47 2.836M112.115 17.994c-.041-2.71-.762-4.699-3.175-4.699-1.99 0-3.091 1.185-3.387 4.953h6.562v-.254zm7.283 4.658h-13.803c.424 3.641 2.16 4.488 4.785 4.488 1.735 0 3.302-.635 5.25-1.99l3.048 4.15c-2.201 1.82-5.25 3.217-9.017 3.217-7.918 0-11.73-4.953-11.73-11.939 0-6.69 3.684-12.152 10.88-12.152 6.566 0 10.714 4.233 10.714 11.685 0 .721-.085 1.778-.127 2.541z"/>
        <path fill="#DB4437" d="M146.771 6.35v3.091h5.419l-.423 3.006h-4.996v19.306h-3.896V12.448h-3.979V9.44h3.979V6.393c0-3.726 2.457-6.393 6.987-6.393 2.117 0 3.556.382 5.335 1.143l-1.228 2.839c-1.44-.636-2.752-.849-3.896-.849-2.454 0-3.302 1.06-3.302 3.219M167.62 18.799c0-4.361-1.736-6.775-5.25-6.775-2.964 0-4.912 2.075-5.208 7.028h10.458v-.253zm3.769 3.133h-14.227c.382 5.166 2.795 7.155 6.013 7.155 2.202 0 3.852-.593 5.8-1.946l1.694 2.328c-2.201 1.736-4.7 2.795-7.791 2.795-6.224 0-9.865-4.362-9.865-11.432 0-6.945 3.513-11.898 9.272-11.898 6.013 0 9.189 4.19 9.189 11.008 0 .76-.042 1.482-.085 1.99zM188.08 18.799c0-4.361-1.735-6.775-5.25-6.775-2.963 0-4.911 2.075-5.207 7.028h10.458v-.253zm3.77 3.133h-14.227c.38 5.166 2.795 7.155 6.013 7.155 2.202 0 3.852-.593 5.8-1.946l1.694 2.328c-2.201 1.736-4.7 2.795-7.791 2.795-6.224 0-9.865-4.362-9.865-11.432 0-6.945 3.514-11.898 9.272-11.898 6.013 0 9.189 4.19 9.189 11.008 0 .76-.042 1.482-.085 1.99zM197.829 27.267c0 1.186.382 1.779 1.398 1.779.55 0 1.016-.085 1.44-.255l1.016 2.71a7.548 7.548 0 0 1-3.302.762c-2.837 0-4.447-1.694-4.447-4.911V.465L197.829 0v27.268z"/>
        <path fill="#A3A6AC" d="M9.816 13.19a1.17 1.17 0 0 1-1.175-1.173 1.176 1.176 0 0 1 2.35 0 1.17 1.17 0 0 1-1.175 1.173m-3.25 0a1.174 1.174 0 1 1 .003-2.343 1.174 1.174 0 0 1-.004 2.343m-3.248 0a1.172 1.172 0 1 1 0-2.345c.65 0 1.171.526 1.171 1.172 0 .654-.52 1.173-1.17 1.173M42.464 9H1.535C.69 9 0 9.702 0 10.574v30.851C0 42.293.691 43 1.534 43h23.57v-2.1H2.048V14.77h39.903V40.9h-5.16l.921 2.1h4.753c.843 0 1.535-.707 1.535-1.575v-30.85C44 9.701 43.308 9 42.465 9"/>
        <path fill="#DB4437" d="M26.734 27.001l14 12.323-6.767.545 3.85 8.031L35.25 49l-3.733-8.138-4.783 4.291z"/>
    </g>
</svg>
